<svg width="18px" height="18px" viewBox="0 0 18 18" version="1.1" xmlns="http://www.w3.org/2000/svg" xmlns:xlink="http://www.w3.org/1999/xlink">
    <g id="Page-1" stroke="none" stroke-width="1" fill="none" fill-rule="evenodd">
        <g id="Artboard" transform="translate(-49.000000, -182.000000)" fill="#FFFFFF" fill-rule="nonzero">
            <g id="Group-2" transform="translate(40.000000, 173.000000)">
                <path d="M18.7109375,26.7890625 C19.234375,26.7890625 19.625,26.46875 19.734375,25.96875 L20.1171875,24.3671875 C20.3515625,24.2890625 20.578125,24.1953125 20.78125,24.1015625 L22.1796875,24.9609375 C22.609375,25.2265625 23.1171875,25.1796875 23.4765625,24.828125 L24.4765625,23.828125 C24.8359375,23.46875 24.8828125,22.9375 24.6015625,22.515625 L23.75,21.125 C23.84375,20.9140625 23.9296875,20.703125 24,20.484375 L25.6171875,20.1015625 C26.125,19.9921875 26.4296875,19.6015625 26.4296875,19.078125 L26.4296875,17.6796875 C26.4296875,17.171875 26.125,16.7734375 25.6171875,16.6640625 L24.015625,16.28125 C23.9375,16.0390625 23.84375,15.8203125 23.765625,15.6328125 L24.6171875,14.21875 C24.8984375,13.78125 24.859375,13.2734375 24.484375,12.9140625 L23.46875,11.9140625 C23.109375,11.5859375 22.6484375,11.5234375 22.2109375,11.765625 L20.78125,12.6484375 C20.578125,12.546875 20.359375,12.4609375 20.125,12.375 L19.734375,10.75 C19.625,10.25 19.234375,9.9296875 18.7109375,9.9296875 L17.2890625,9.9296875 C16.765625,9.9296875 16.375,10.25 16.265625,10.7578125 L15.8828125,12.359375 C15.6484375,12.4453125 15.4140625,12.53125 15.2109375,12.640625 L13.7890625,11.765625 C13.3515625,11.5234375 12.890625,11.578125 12.5234375,11.9140625 L11.515625,12.9140625 C11.140625,13.2734375 11.1015625,13.78125 11.3828125,14.21875 L12.234375,15.6328125 C12.15625,15.8203125 12.0625,16.0390625 11.984375,16.28125 L10.3828125,16.6640625 C9.8828125,16.7734375 9.5703125,17.171875 9.5703125,17.6796875 L9.5703125,19.078125 C9.5703125,19.6015625 9.8828125,19.9921875 10.3828125,20.1015625 L12,20.484375 C12.0703125,20.703125 12.15625,20.9140625 12.25,21.125 L11.3984375,22.515625 C11.1171875,22.9375 11.1640625,23.46875 11.5234375,23.828125 L12.5234375,24.828125 C12.8828125,25.1796875 13.390625,25.2265625 13.8203125,24.9609375 L15.21875,24.1015625 C15.421875,24.1953125 15.6484375,24.2890625 15.8828125,24.3671875 L16.265625,25.96875 C16.375,26.46875 16.765625,26.7890625 17.2890625,26.7890625 L18.7109375,26.7890625 Z M18,21.0703125 C16.5078125,21.0703125 15.2890625,19.8515625 15.2890625,18.3515625 C15.2890625,16.875 16.5078125,15.6484375 18,15.6484375 C19.4921875,15.6484375 20.7109375,16.875 20.7109375,18.3515625 C20.7109375,19.8515625 19.4921875,21.0703125 18,21.0703125 Z" id="􀣌"></path>
            </g>
        </g>
    </g>
</svg>