<svg width="17px" height="16px" viewBox="0 0 17 16" version="1.1" xmlns="http://www.w3.org/2000/svg" xmlns:xlink="http://www.w3.org/1999/xlink">
    <g id="Page-1" stroke="none" stroke-width="1" fill="none" fill-rule="evenodd">
        <g id="Artboard" transform="translate(-234.000000, -183.000000)" fill="#FFFFFF" fill-rule="nonzero">
            <path d="M247.914062,198.757812 C249.65625,198.757812 250.578125,197.828125 250.578125,196.109375 L250.578125,186.625 C250.578125,184.90625 249.65625,183.984375 247.914062,183.984375 L237.085938,183.984375 C235.351562,183.984375 234.421875,184.90625 234.421875,186.625 L234.421875,196.109375 C234.421875,197.835938 235.351562,198.757812 237.085938,198.757812 L247.914062,198.757812 Z M247.835938,196.96875 L237.164062,196.96875 C236.539062,196.96875 236.210938,196.65625 236.210938,196.007812 L236.210938,188.945312 C236.210938,188.289062 236.539062,187.984375 237.164062,187.984375 L247.835938,187.984375 C248.453125,187.984375 248.789062,188.289062 248.789062,188.945312 L248.789062,196.007812 C248.789062,196.65625 248.453125,196.96875 247.835938,196.96875 Z M246.523438,190.710938 C246.8125,190.710938 247.03125,190.484375 247.03125,190.195312 C247.03125,189.914062 246.8125,189.703125 246.523438,189.703125 L238.484375,189.703125 C238.1875,189.703125 237.96875,189.914062 237.96875,190.195312 C237.96875,190.484375 238.1875,190.710938 238.484375,190.710938 L246.523438,190.710938 Z M246.523438,192.984375 C246.8125,192.984375 247.03125,192.765625 247.03125,192.484375 C247.03125,192.195312 246.8125,191.96875 246.523438,191.96875 L238.484375,191.96875 C238.1875,191.96875 237.96875,192.195312 237.96875,192.484375 C237.96875,192.765625 238.1875,192.984375 238.484375,192.984375 L246.523438,192.984375 Z M243.53125,195.25 C243.820312,195.25 244.039062,195.03125 244.039062,194.75 C244.039062,194.46875 243.820312,194.242188 243.53125,194.242188 L238.484375,194.242188 C238.1875,194.242188 237.96875,194.46875 237.96875,194.75 C237.96875,195.03125 238.1875,195.25 238.484375,195.25 L243.53125,195.25 Z" id="􀓕"></path>
        </g>
    </g>
</svg>