
<svg width="21px" height="27px" viewBox="0 0 21 27" version="1.1" xmlns="http://www.w3.org/2000/svg" xmlns:xlink="http://www.w3.org/1999/xlink">
    <g id="Page-1" stroke="none" stroke-width="1" fill="none" fill-rule="evenodd">
        <path d="M6.25,26.9375 C7.828125,26.9375 8.625,26.125 8.625,24.5625 L8.625,2.890625 C8.625,1.296875 7.828125,0.546875 6.25,0.515625 L2.484375,0.515625 C0.90625,0.515625 0.109375,1.3125 0.109375,2.890625 L0.109375,24.5625 C0.09375,26.125 0.890625,26.9375 2.484375,26.9375 L6.25,26.9375 Z M18.515625,26.9375 C20.078125,26.9375 20.890625,26.125 20.890625,24.5625 L20.890625,2.890625 C20.890625,1.296875 20.078125,0.515625 18.515625,0.515625 L14.75,0.515625 C13.171875,0.515625 12.375,1.3125 12.375,2.890625 L12.375,24.5625 C12.375,26.125 13.15625,26.9375 14.75,26.9375 L18.515625,26.9375 Z" id="􀊆" fill="#FFFFFF" fill-rule="nonzero"></path>
    </g>
</svg>